<?xml version="1.0" encoding="UTF-8" standalone="no"?>
<svg
   xmlns:dc="http://purl.org/dc/elements/1.1/"
   xmlns:cc="http://creativecommons.org/ns#"
   xmlns:rdf="http://www.w3.org/1999/02/22-rdf-syntax-ns#"
   xmlns:svg="http://www.w3.org/2000/svg"
   xmlns="http://www.w3.org/2000/svg"
   xmlns:sodipodi="http://sodipodi.sourceforge.net/DTD/sodipodi-0.dtd"
   xmlns:inkscape="http://www.inkscape.org/namespaces/inkscape"
   width="100pt"
   height="100pt"
   viewBox="0 0 100 100"
   version="1.1"
   id="svg2"
   inkscape:version="0.91 r13725"
   sodipodi:docname="icon_xomv_TEST.svg">
  <metadata
     id="metadata56">
    <rdf:RDF>
      <cc:Work
         rdf:about="">
        <dc:format>image/svg+xml</dc:format>
        <dc:type
           rdf:resource="http://purl.org/dc/dcmitype/StillImage" />
        <dc:title></dc:title>
      </cc:Work>
    </rdf:RDF>
  </metadata>
  <defs
     id="defs54" />
  <sodipodi:namedview
     pagecolor="#ffffff"
     bordercolor="#666666"
     borderopacity="1"
     objecttolerance="10"
     gridtolerance="10"
     guidetolerance="10"
     inkscape:pageopacity="0"
     inkscape:pageshadow="2"
     inkscape:window-width="1616"
     inkscape:window-height="1028"
     id="namedview52"
     showgrid="false"
     inkscape:zoom="7.552"
     inkscape:cx="54.345843"
     inkscape:cy="68.42825"
     inkscape:window-x="1272"
     inkscape:window-y="-8"
     inkscape:window-maximized="1"
     inkscape:current-layer="svg2" />
  <path
     fill="#b5bcc1"
     d=" M 85.42 52.18 C 86.56 52.70 87.71 53.18 88.85 53.69 C 88.88 54.93 88.92 56.17 88.97 57.41 C 87.37 56.63 85.74 55.93 84.10 55.25 C 84.13 55.04 84.18 54.64 84.20 54.44 C 84.51 53.87 85.11 52.74 85.42 52.18 Z"
     id="path14" />
  <path
     d="m 94.58,56.48 c 1.75,-1.11 3.62,-2.02 5.42,-3.04 l 0,1.09 c -3.26,3.63 -7.45,6.17 -11.67,8.52 -1.44,0.72 -2.88,1.94 -4.65,1.15 l 0.05,0.2 c -7,4.06 -14.91,6.2 -22.62,8.46 -3.71,0.7 -7.66,2.54 -11.38,0.98 -0.09,0.23 -0.29,0.7 -0.38,0.93 -2.81,0.64 -5.61,1.31 -8.46,1.74 -2.78,0.01 -4.96,1.79 -7.03,3.42 -0.56,-0.92 -1.13,-1.84 -1.69,-2.76 -4.85,2.77 -10.6,0.46 -15.79,2.03 -2.78,0.34 -6.42,-1.14 -8.26,1.73 l 0.84,-1.92 c -2.67,0.52 -5.34,1.02 -8.01,1.57 l -0.2,-0.86 c 3.37,-0.7 6.74,-1.35 10.14,-1.87 1.94,-0.24 3.89,-0.41 5.82,-0.68 2.8,-0.57 5.54,-1.86 8.46,-1.22 0.56,-0.46 1.67,-1.36 2.22,-1.82 1.27,0.3 2.54,0.59 3.81,0.85 17.75,-1.89 35.52,-5.77 51.9,-13.01 l 0.72,-0.38 c 1,-0.5 2.01,-0.98 3.03,-1.43 0.56,-0.16 1.67,-0.5 2.22,-0.66 2.717797,-1.178983 1.956441,-0.855254 5.51,-3.02 z"
     id="path16"
     inkscape:connector-curvature="0"
     style="fill:#5a4269"
     sodipodi:nodetypes="ccccccccccccccccccccccccccc" />
  <path
     fill="#cf245a"
     d=" M 61.02 59.49 C 67.43 57.11 74.22 55.03 81.09 54.85 C 80.17 57.41 78.08 59.12 75.92 60.61 C 75.43 59.94 74.93 59.28 74.43 58.61 C 73.53 60.22 72.45 61.72 71.08 62.96 L 70.68 61.37 C 68.20 62.38 65.86 63.75 64.00 65.71 C 63.35 65.23 62.70 64.76 62.06 64.28 C 61.37 65.58 60.66 66.86 59.98 68.16 C 59.16 67.21 58.45 66.19 57.64 65.24 C 57.28 66.72 56.88 68.19 56.52 69.67 C 55.69 69.10 54.85 68.52 54.02 67.94 C 53.33 68.86 52.66 69.80 51.96 70.72 C 51.01 70.32 50.06 69.91 49.12 69.51 C 47.38 70.21 45.65 70.92 43.92 71.62 C 42.57 70.80 41.21 69.97 39.86 69.14 C 38.66 70.74 37.53 72.38 36.44 74.05 C 33.11 73.23 31.82 68.93 28.07 69.20 C 28.75 71.31 29.80 73.25 31.20 74.98 C 29.93 74.72 28.66 74.43 27.39 74.13 C 26.84 74.59 25.73 75.49 25.17 75.95 C 22.25 75.31 19.51 76.60 16.71 77.17 C 16.17 76.53 15.09 75.26 14.55 74.63 C 15.58 74.59 16.60 74.56 17.63 74.54 C 17.04 74.03 15.86 73.03 15.27 72.52 C 18.19 72.52 21.11 72.50 24.03 72.45 C 22.60 71.96 21.17 71.47 19.74 70.97 C 24.80 68.56 30.45 67.81 35.74 66.01 C 42.36 64.86 49.05 63.93 55.36 61.48 C 57.27 60.88 59.17 60.25 61.02 59.49 Z"
     id="path18" />
  <path
     fill="#753586"
     d=" M 81.09 54.85 C 83.63 56.28 82.85 59.56 83.10 61.97 C 66.72 69.21 48.95 73.09 31.20 74.98 C 29.80 73.25 28.75 71.31 28.07 69.20 C 31.82 68.93 33.11 73.23 36.44 74.05 C 37.53 72.38 38.66 70.74 39.86 69.14 C 41.21 69.97 42.57 70.80 43.92 71.62 C 45.65 70.92 47.38 70.21 49.12 69.51 C 50.06 69.91 51.01 70.32 51.96 70.72 C 52.66 69.80 53.33 68.86 54.02 67.94 C 54.85 68.52 55.69 69.10 56.52 69.67 C 56.88 68.19 57.28 66.72 57.64 65.24 C 58.45 66.19 59.16 67.21 59.98 68.16 C 60.66 66.86 61.37 65.58 62.06 64.28 C 62.70 64.76 63.35 65.23 64.00 65.71 C 65.86 63.75 68.20 62.38 70.68 61.37 L 71.08 62.96 C 72.45 61.72 73.53 60.22 74.43 58.61 C 74.93 59.28 75.43 59.94 75.92 60.61 C 78.08 59.12 80.17 57.41 81.09 54.85 Z"
     id="path20" />
  <path
     fill="#7c8a93"
     d=" M 84.10 55.25 C 85.74 55.93 87.37 56.63 88.97 57.41 L 89.04 58.59 C 87.69 57.97 86.96 58.50 86.85 60.16 C 85.83 60.61 84.82 61.09 83.82 61.59 C 83.96 59.48 83.99 57.36 84.10 55.25 Z"
     id="path22" />
  <path
     fill="#d6d6d7"
     d=" M 88.33 63.05 C 92.55 60.70 96.74 58.16 100.00 54.53 L 100.00 57.20 C 97.65 59.57 94.84 61.39 92.20 63.41 C 91.24 63.32 89.30 63.14 88.33 63.05 Z"
     id="path24" />
  <path
     fill="#bfbfc0"
     d=" M 86.85 60.16 C 86.96 58.50 87.69 57.97 89.04 58.59 L 89.07 59.50 C 88.52 59.66 87.41 60.00 86.85 60.16 Z"
     id="path26" />
  <path
     fill="#9aa7b0"
     d=" M 83.68 64.20 C 85.45 64.99 86.89 63.77 88.33 63.05 C 89.30 63.14 91.24 63.32 92.20 63.41 C 91.86 63.68 91.17 64.20 90.83 64.46 C 91.89 65.44 92.95 66.43 94.02 67.41 C 93.36 67.59 92.06 67.96 91.41 68.14 C 91.04 69.34 90.67 70.55 90.31 71.76 C 89.90 70.79 89.50 69.82 89.10 68.85 C 88.65 69.53 87.76 70.90 87.31 71.58 C 86.73 68.85 85.70 66.20 83.68 64.20 Z"
     id="path28" />
  <path
     fill="#a83875"
     d=" M 61.11 72.86 C 68.82 70.60 76.73 68.46 83.73 64.40 C 84.13 65.37 84.57 66.33 85.04 67.27 C 83.78 68.09 83.45 70.19 84.93 70.96 C 84.69 71.28 84.22 71.93 83.98 72.26 C 81.39 72.89 78.78 73.41 76.14 73.77 C 74.95 73.27 73.79 72.71 72.64 72.15 C 71.87 73.12 71.15 74.13 70.39 75.11 C 67.31 75.06 64.30 73.74 61.21 74.25 C 57.58 74.93 53.91 75.39 50.30 76.21 C 50.06 75.85 49.58 75.13 49.35 74.77 C 49.44 74.54 49.64 74.07 49.73 73.84 C 53.45 75.40 57.40 73.56 61.11 72.86 Z"
     id="path30" />
  <path
     fill="#e21e53"
     d=" M 84.93 70.96 C 83.45 70.19 83.78 68.09 85.04 67.27 C 85.77 68.56 85.73 69.79 84.93 70.96 Z"
     id="path32" />
  <path
     fill="#e98d6a"
     d=" M 11.00 72.58 C 13.93 72.14 17.00 72.21 19.74 70.97 C 21.17 71.47 22.60 71.96 24.03 72.45 C 21.11 72.50 18.19 72.52 15.27 72.52 C 15.86 73.03 17.04 74.03 17.63 74.54 C 16.60 74.56 15.58 74.59 14.55 74.63 C 15.09 75.26 16.17 76.53 16.71 77.17 C 14.78 77.44 12.83 77.61 10.89 77.85 C 11.57 77.64 12.94 77.21 13.62 76.99 C 12.75 75.52 11.88 74.05 11.00 72.58 Z"
     id="path34" />
  <path
     fill="#cf3056"
     d=" M 70.39 75.11 C 71.15 74.13 71.87 73.12 72.64 72.15 C 73.79 72.71 74.95 73.27 76.14 73.77 C 75.63 74.35 74.61 75.51 74.10 76.09 C 71.27 76.57 68.80 77.96 67.03 80.23 C 66.69 80.26 66.01 80.31 65.67 80.34 L 65.35 77.92 C 62.98 82.79 56.73 81.58 52.23 82.52 C 50.80 81.92 49.07 81.44 48.61 79.76 C 48.57 76.52 51.81 76.69 53.70 78.19 C 54.07 77.69 54.81 76.70 55.18 76.20 C 55.23 76.88 55.32 78.23 55.36 78.90 C 55.58 78.34 56.01 77.23 56.22 76.67 C 56.73 77.38 57.23 78.10 57.74 78.83 C 57.73 78.15 57.71 76.81 57.70 76.13 C 58.56 76.12 59.43 76.09 60.30 76.05 C 60.53 75.60 60.98 74.70 61.21 74.25 C 64.30 73.74 67.31 75.06 70.39 75.11 Z"
     id="path36" />
  <path
     fill="#cf8f79"
     d=" M 76.14 73.77 C 78.78 73.41 81.39 72.89 83.98 72.26 C 79.25 76.39 73.02 78.63 67.03 80.23 C 68.80 77.96 71.27 76.57 74.10 76.09 C 74.61 75.51 75.63 74.35 76.14 73.77 Z"
     id="path38" />
  <path
     fill="#e0c67a"
     d=" M 0.75 79.72 C 2.29 75.64 7.11 73.79 11.00 72.58 C 11.88 74.05 12.75 75.52 13.62 76.99 C 12.94 77.21 11.57 77.64 10.89 77.85 C 7.49 78.37 4.12 79.02 0.75 79.72 Z"
     id="path40" />
  <path
     fill="#943072"
     d=" M 50.30 76.21 C 53.91 75.39 57.58 74.93 61.21 74.25 C 60.98 74.70 60.53 75.60 60.30 76.05 C 59.43 76.09 58.56 76.12 57.70 76.13 C 57.71 76.81 57.73 78.15 57.74 78.83 C 57.23 78.10 56.73 77.38 56.22 76.67 C 56.01 77.23 55.58 78.34 55.36 78.90 C 55.32 78.23 55.23 76.88 55.18 76.20 C 54.81 76.70 54.07 77.69 53.70 78.19 C 51.81 76.69 48.57 76.52 48.61 79.76 C 47.84 76.41 44.15 77.38 42.36 79.26 C 42.38 78.42 42.41 77.59 42.41 76.75 C 42.03 76.69 41.27 76.57 40.89 76.51 C 43.74 76.08 46.54 75.41 49.35 74.77 C 49.58 75.13 50.06 75.85 50.30 76.21 Z"
     id="path42" />
  <path
     fill="#c12b5b"
     d=" M 33.86 79.93 C 35.93 78.30 38.11 76.52 40.89 76.51 C 41.27 76.57 42.03 76.69 42.41 76.75 C 42.41 77.59 42.38 78.42 42.36 79.26 C 44.15 77.38 47.84 76.41 48.61 79.76 C 49.07 81.44 50.80 81.92 52.23 82.52 C 48.45 82.78 44.73 83.51 40.99 84.11 C 41.12 83.63 41.38 82.65 41.51 82.17 L 40.67 82.20 L 40.74 83.56 C 36.65 84.89 32.35 84.32 28.14 84.34 C 28.31 83.80 28.65 82.71 28.81 82.17 C 23.06 83.31 17.19 82.47 11.38 82.55 C 13.05 81.43 14.69 80.28 16.38 79.20 C 21.57 77.63 27.32 79.94 32.17 77.17 C 32.73 78.09 33.30 79.01 33.86 79.93 Z"
     id="path44" />
  <path
     fill="#e2ac71"
     d=" M 58.55 80.88 C 58.19 79.61 60.01 78.10 61.24 78.43 C 61.92 79.79 59.85 81.57 58.55 80.88 Z"
     id="path46" />
  <path
     fill="#f6d67c"
     d=" M 8.12 80.93 C 9.96 78.06 13.60 79.54 16.38 79.20 C 14.69 80.28 13.05 81.43 11.38 82.55 C 9.57 82.60 7.79 82.93 5.99 83.14 C 4.15 82.66 1.97 82.43 0.95 80.58 C 3.62 80.03 6.29 79.53 8.96 79.01 C 8.75 79.49 8.33 80.45 8.12 80.93 Z"
     id="path48" />
  <path
     fill="#d88f6d"
     d=" M 11.38 82.55 C 17.19 82.47 23.06 83.31 28.81 82.17 C 28.65 82.71 28.31 83.80 28.14 84.34 C 24.43 84.55 20.71 84.44 17.06 83.72 C 13.33 84.06 9.58 84.59 5.99 83.14 C 7.79 82.93 9.57 82.60 11.38 82.55 Z"
     id="path50" />
  <text
     xml:space="preserve"
     style="font-style:normal;font-weight:normal;font-size:48px;line-height:125%;font-family:sans-serif;letter-spacing:0px;word-spacing:0px;fill:#000000;fill-opacity:1;stroke:none;stroke-width:1px;stroke-linecap:butt;stroke-linejoin:miter;stroke-opacity:1;"
     x="11.016949"
     y="54.661018"
     id="text3418"
     sodipodi:linespacing="125%"><tspan
       sodipodi:role="line"
       id="tspan3420"
       x="11.016949"
       y="54.661018" /></text>
  <text
     xml:space="preserve"
     style="font-style:normal;font-weight:normal;font-size:56px;line-height:125%;font-family:sans-serif;letter-spacing:0px;word-spacing:0px;fill:#000000;fill-opacity:1;stroke:none;stroke-width:1px;stroke-linecap:butt;stroke-linejoin:miter;stroke-opacity:1;"
     x="10.169492"
     y="61.440681"
     id="text3422"
     sodipodi:linespacing="125%"><tspan
       sodipodi:role="line"
       id="tspan3424"
       x="10.169492"
       y="61.440681"></tspan></text>
  <text
     xml:space="preserve"
     style="font-style:normal;font-weight:normal;font-size:56px;line-height:125%;font-family:sans-serif;letter-spacing:0px;word-spacing:0px;fill:#000000;fill-opacity:1;stroke:none;stroke-width:1px;stroke-linecap:butt;stroke-linejoin:miter;stroke-opacity:1"
     x="15.254237"
     y="64.830513"
     id="text3426"
     sodipodi:linespacing="125%"><tspan
       sodipodi:role="line"
       id="tspan3428"
       x="15.254237"
       y="64.830513"></tspan></text>
  <text
     xml:space="preserve"
     style="font-style:normal;font-weight:normal;font-size:56px;line-height:125%;font-family:sans-serif;letter-spacing:0px;word-spacing:0px;fill:#000000;fill-opacity:1;stroke:none;stroke-width:1px;stroke-linecap:butt;stroke-linejoin:miter;stroke-opacity:1"
     x="9.3220339"
     y="66.1017"
     id="text3430"
     sodipodi:linespacing="125%"><tspan
       sodipodi:role="line"
       id="tspan3432"
       x="9.3220339"
       y="66.1017" /></text>
  <text
     xml:space="preserve"
     style="font-style:normal;font-weight:normal;font-size:56px;line-height:125%;font-family:sans-serif;letter-spacing:0px;word-spacing:0px;fill:#000000;fill-opacity:1;stroke:none;stroke-width:1px;stroke-linecap:butt;stroke-linejoin:miter;stroke-opacity:1"
     x="6.3559322"
     y="56.779663"
     id="text3434"
     sodipodi:linespacing="125%"><tspan
       sodipodi:role="line"
       id="tspan3436"
       x="6.3559322"
       y="56.779663"></tspan></text>
  <text
     xml:space="preserve"
     style="font-style:normal;font-weight:normal;font-size:60px;line-height:125%;font-family:sans-serif;letter-spacing:0px;word-spacing:0px;fill:#000000;fill-opacity:1;stroke:none;stroke-width:1px;stroke-linecap:butt;stroke-linejoin:miter;stroke-opacity:1;"
     x="8.2627125"
     y="61.016949"
     id="text3447"
     sodipodi:linespacing="125%"><tspan
       sodipodi:role="line"
       id="tspan3449"
       x="8.2627125"
       y="61.016949"></tspan></text>
  <text
     xml:space="preserve"
     style="font-style:normal;font-weight:normal;font-size:64px;line-height:125%;font-family:sans-serif;letter-spacing:0px;word-spacing:0px;fill:#000000;fill-opacity:1;stroke:none;stroke-width:1px;stroke-linecap:butt;stroke-linejoin:miter;stroke-opacity:1"
     x="6.0381355"
     y="65.466103"
     id="text3451"
     sodipodi:linespacing="125%"><tspan
       sodipodi:role="line"
       id="tspan3453"
       x="6.0381355"
       y="65.466103"></tspan></text>
  <text
     xml:space="preserve"
     style="font-style:normal;font-weight:normal;font-size:64px;line-height:125%;font-family:sans-serif;letter-spacing:0px;word-spacing:0px;fill:#000000;fill-opacity:1;stroke:none;stroke-width:1px;stroke-linecap:butt;stroke-linejoin:miter;stroke-opacity:1"
     x="3.3898304"
     y="41.84322"
     id="text3455"
     sodipodi:linespacing="125%"><tspan
       sodipodi:role="line"
       id="tspan3457"
       x="3.3898304"
       y="41.84322"></tspan></text>
  <text
     xml:space="preserve"
     style="font-style:normal;font-weight:normal;font-size:64px;line-height:125%;font-family:sans-serif;letter-spacing:0px;word-spacing:0px;fill:#000000;fill-opacity:1;stroke:none;stroke-width:1px;stroke-linecap:butt;stroke-linejoin:miter;stroke-opacity:1"
     x="3.9194915"
     y="41.31356"
     id="text3459"
     sodipodi:linespacing="125%"><tspan
       sodipodi:role="line"
       id="tspan3461"
       x="3.9194915"
       y="41.31356"></tspan></text>
  <text
     xml:space="preserve"
     style="font-style:normal;font-weight:normal;font-size:60px;line-height:125%;font-family:sans-serif;letter-spacing:0px;word-spacing:0px;fill:#000000;fill-opacity:1;stroke:none;stroke-width:1px;stroke-linecap:butt;stroke-linejoin:miter;stroke-opacity:1;"
     x="4.9788136"
     y="56.991528"
     id="text3463"
     sodipodi:linespacing="125%"><tspan
       sodipodi:role="line"
       id="tspan3465"
       x="4.9788136"
       y="56.991528"></tspan></text>
  <text
     xml:space="preserve"
     style="font-style:normal;font-weight:normal;font-size:60px;line-height:125%;font-family:sans-serif;letter-spacing:0px;word-spacing:0px;fill:#000000;fill-opacity:1;stroke:none;stroke-width:1px;stroke-linecap:butt;stroke-linejoin:miter;stroke-opacity:1"
     x="4.2372885"
     y="59.533897"
     id="text3467"
     sodipodi:linespacing="125%"><tspan
       sodipodi:role="line"
       id="tspan3469"
       x="4.2372885"
       y="59.533897"></tspan></text>
  <text
     xml:space="preserve"
     style="font-style:normal;font-weight:normal;font-size:60px;line-height:125%;font-family:sans-serif;letter-spacing:0px;word-spacing:0px;fill:#000000;fill-opacity:1;stroke:none;stroke-width:1px;stroke-linecap:butt;stroke-linejoin:miter;stroke-opacity:1"
     x="4.1313562"
     y="52.54237"
     id="text3471"
     sodipodi:linespacing="125%"><tspan
       sodipodi:role="line"
       id="tspan3473"
       x="4.1313562"
       y="52.54237" /></text>
  <text
     xml:space="preserve"
     style="font-style:normal;font-weight:normal;font-size:62px;line-height:125%;font-family:sans-serif;letter-spacing:0px;word-spacing:0px;fill:#000000;fill-opacity:1;stroke:none;stroke-width:1px;stroke-linecap:butt;stroke-linejoin:miter;stroke-opacity:1"
     x="3.6016948"
     y="57.838982"
     id="text3475"
     sodipodi:linespacing="125%"><tspan
       sodipodi:role="line"
       id="tspan3477"
       x="3.6016948"
       y="57.838982" /></text>
  <text
     xml:space="preserve"
     style="font-style:normal;font-weight:normal;font-size:62px;line-height:125%;font-family:sans-serif;letter-spacing:0px;word-spacing:0px;fill:#000000;fill-opacity:1;stroke:none;stroke-width:1px;stroke-linecap:butt;stroke-linejoin:miter;stroke-opacity:1"
     x="2.012712"
     y="53.601696"
     id="text3479"
     sodipodi:linespacing="125%"><tspan
       sodipodi:role="line"
       id="tspan3481"
       x="2.012712"
       y="53.601696" /></text>
  <text
     xml:space="preserve"
     style="font-style:normal;font-weight:normal;font-size:62px;line-height:125%;font-family:sans-serif;letter-spacing:0px;word-spacing:0px;fill:#000000;fill-opacity:1;stroke:none;stroke-width:1px;stroke-linecap:butt;stroke-linejoin:miter;stroke-opacity:1"
     x="1.3771187"
     y="55.084747"
     id="text3483"
     sodipodi:linespacing="125%"><tspan
       sodipodi:role="line"
       id="tspan3485"
       x="1.3771187"
       y="55.084747" /></text>
  <text
     xml:space="preserve"
     style="font-style:normal;font-weight:normal;font-size:62px;line-height:125%;font-family:sans-serif;letter-spacing:0px;word-spacing:0px;fill:#000000;fill-opacity:1;stroke:none;stroke-width:1px;stroke-linecap:butt;stroke-linejoin:miter;stroke-opacity:1"
     x="0.52966106"
     y="55.084747"
     id="text3487"
     sodipodi:linespacing="125%"><tspan
       sodipodi:role="line"
       x="0.52966106"
       y="55.084747"
       id="tspan3491">OM</tspan></text>
</svg>
